<?xml version="1.0" standalone="no"?>
<!DOCTYPE svg PUBLIC "-//W3C//DTD SVG 20010904//EN"
 "http://www.w3.org/TR/2001/REC-SVG-20010904/DTD/svg10.dtd">
<svg version="1.0" xmlns="http://www.w3.org/2000/svg"
 width="301.000000pt" height="301.000000pt" viewBox="0 0 301.000000 301.000000"
 preserveAspectRatio="xMidYMid meet">
<metadata>
Created by potrace 1.11, written by Peter Selinger 2001-2013
</metadata>
<g transform="translate(0.000000,301.000000) scale(0.100000,-0.100000)"
fill="#000000" stroke="none">
<path d="M1280 2995 c-97 -17 -220 -48 -294 -74 -183 -65 -391 -199 -540 -347
-197 -198 -327 -427 -395 -699 -90 -364 -31 -780 155 -1096 226 -382 598 -645
1027 -727 144 -27 427 -24 576 7 217 45 413 134 606 277 77 57 222 201 281
279 140 186 248 432 287 655 2 14 5 -264 6 -617 l1 -643 -1497 -3 -1498 -2
1503 -3 1502 -2 -2 1508 c-2 829 -4 1236 -5 905 -2 -332 -7 -603 -11 -603 -5
0 -15 26 -22 58 -56 253 -212 525 -411 718 -292 282 -650 425 -1059 423 -74
-1 -169 -7 -210 -14z m1710 -1205 c0 -5 -2 -10 -4 -10 -3 0 -8 5 -11 10 -3 6
-1 10 4 10 6 0 11 -4 11 -10z"/>
</g>
</svg>
