<?xml version="1.0" encoding="UTF-8" standalone="no"?>
<!-- Created with Inkscape (http://www.inkscape.org/) -->

<svg
   xmlns:dc="http://purl.org/dc/elements/1.1/"
   xmlns:cc="http://creativecommons.org/ns#"
   xmlns:rdf="http://www.w3.org/1999/02/22-rdf-syntax-ns#"
   xmlns:svg="http://www.w3.org/2000/svg"
   xmlns="http://www.w3.org/2000/svg"
   xmlns:sodipodi="http://sodipodi.sourceforge.net/DTD/sodipodi-0.dtd"
   xmlns:inkscape="http://www.inkscape.org/namespaces/inkscape"
   version="1.1"
   id="svg114"
   width="2498.9153"
   height="976.65942"
   viewBox="0 0 2498.9153 976.65942"
   sodipodi:docname="jiraLogo.svg"
   inkscape:version="0.92.3 (3ce5693, 2018-03-11)">
  <metadata
     id="metadata120">
    <rdf:RDF>
      <cc:Work
         rdf:about="">
        <dc:format>image/svg+xml</dc:format>
        <dc:type
           rdf:resource="http://purl.org/dc/dcmitype/StillImage" />
        <dc:title></dc:title>
      </cc:Work>
    </rdf:RDF>
  </metadata>
  <defs
     id="defs118" />
  <sodipodi:namedview
     pagecolor="#ffffff"
     bordercolor="#666666"
     borderopacity="1"
     objecttolerance="10"
     gridtolerance="10"
     guidetolerance="10"
     inkscape:pageopacity="0"
     inkscape:pageshadow="2"
     inkscape:window-width="1451"
     inkscape:window-height="868"
     id="namedview116"
     showgrid="false"
     inkscape:zoom="0.40097398"
     inkscape:cx="1249.4576"
     inkscape:cy="388.57261"
     inkscape:window-x="401"
     inkscape:window-y="144"
     inkscape:window-maximized="0"
     inkscape:current-layer="svg114" />
  <path
     inkscape:connector-curvature="0"
     id="path140"
     d="M 2.4939273,488.32969 V -2.1617312e-5 H 1251.9516 2501.4092 V 488.32969 976.6594 H 1251.9516 2.4939273 Z"
     style="fill:#fefefe;stroke-width:1.0412147" />
  <path
     inkscape:connector-curvature="0"
     id="path138"
     d="m 813.95445,973.57989 c -4.55892,-1.08625 -9.6728,-4.23643 -11.90357,-7.33264 -2.55811,-3.55055 -29.05807,-90.44455 -29.05807,-95.28212 0,-5.21759 3.58017,-11.25092 8.22555,-13.86176 2.18999,-1.23085 7.45796,-2.60103 12.36655,-3.21653 12.97813,-1.62731 20.56062,-3.87181 31.98925,-9.46917 16.04685,-7.85921 27.13439,-18.46856 34.73265,-33.23473 4.42923,-8.60758 5.51977,-11.60618 8.18457,-22.50483 1.63708,-6.69539 1.81458,-27.51713 2.33402,-273.79744 0.55784,-264.48129 0.57837,-266.57266 2.64463,-269.34385 1.14534,-1.53607 3.80604,-3.77285 5.91268,-4.97062 3.78052,-2.1495 4.60712,-2.17406 63.69877,-1.8926 58.55892,0.27892 59.93282,0.33205 62.80752,2.42854 1.6164,1.17887 3.9931,4.20656 5.2816,6.72822 l 2.3428,4.58483 v 269.34368 c 0,180.165 -0.3612,272.9138 -1.0908,280.12644 -2.5082,24.79505 -8.5689,45.69948 -19.72895,68.04958 -9.0135,18.05112 -18.12258,30.93404 -32.28219,45.65646 -22.24833,23.13268 -47.09516,38.89895 -77.04989,48.89114 -22.60682,7.5411 -57.01235,12.05074 -69.40712,9.0974 z M 133.69442,927.12151 c -4.47136,-1.95948 -8.00346,-5.17433 -10.20752,-9.29074 -4.14601,-7.74329 0.46433,-47.00156 9.65982,-82.25597 11.092,-42.52537 33.34167,-91.29602 61.14641,-134.03122 7.52981,-11.57312 10.95809,-14.67409 17.57947,-15.90105 7.99788,-1.48204 11.1274,0.45452 26.52406,16.41307 28.9351,29.9911 64.96302,71.98746 69.43511,80.93786 1.75813,3.51871 2.34111,6.50042 2.34111,11.97397 0,6.89057 -0.3792,8.05594 -6.94534,21.3449 -15.66133,31.69634 -24.48227,60.81779 -27.43856,90.58568 -0.89501,9.0122 -3.87863,15.07034 -9.13594,18.55026 l -4.22201,2.79464 -62.54989,0.23617 c -54.23287,0.20478 -63.03348,0.0243 -66.18672,-1.35757 z m 307.63435,0.26128 c -9.37701,-3.62615 -11.65636,-7.73463 -14.00854,-25.25017 C 423.707,875.22654 417.39865,853.13713 406.22215,828.25528 381.26121,772.68561 341.736,722.00216 249.26182,626.98398 200.39568,576.77353 178.4613,553.99203 162.841,537.22561 86.534714,455.32043 42.163068,388.52116 19.00922,320.69412 8.431895,289.70884 0.7471408,250.67882 2.9313099,239.0362 3.7869947,234.47501 9.040455,228.22976 13.637275,226.30909 c 6.300858,-2.63266 11.320583,-1.71799 32.289925,5.88375 24.356835,8.82977 56.92517,18.71273 85.67735,25.99903 11.7397,2.97505 22.87771,6.3516 24.75115,7.50344 4.84119,2.9765 7.64712,7.25739 12.16284,18.55629 14.03549,35.11863 39.34558,73.63499 77.885,118.52373 28.5448,33.24753 91.84095,99.16961 98.15339,102.22539 10.83679,5.24601 13.7318,3.39025 44.83277,-28.73862 65.00554,-67.15399 96.02696,-103.97472 120.92319,-143.5292 7.75771,-12.32526 20.64045,-37.30705 25.29482,-49.05086 6.76286,-17.06396 8.71693,-18.54289 32.26581,-24.4202 33.46931,-8.35323 67.90976,-18.78874 96.66192,-29.2887 17.99805,-6.57268 23.8231,-6.58382 30.71953,-0.0587 6.95947,6.5847 7.60301,12.3787 3.89569,35.07475 -10.0649,61.61686 -38.18436,122.72541 -86.01805,186.93235 -28.6454,38.45059 -61.82936,75.87586 -122.28945,137.91951 -16.17967,16.60343 -29.83123,31.27602 -30.33678,32.60574 -1.45178,3.81848 -1.06771,8.80836 0.90841,11.80222 0.99916,1.51374 8.23664,11.21411 16.08331,21.5564 50.85549,67.03005 83.47813,132.94299 97.10719,196.20176 5.68132,26.3696 8.93547,56.24166 6.82378,62.64013 -1.71795,5.20544 -5.92593,9.89546 -10.90944,12.15915 -3.93373,1.78684 -8.17709,1.90773 -65.119,1.85505 -44.01339,-0.0407 -61.78792,-0.39543 -64.07186,-1.27865 z m 692.32403,-0.61124 c -2.3571,-1.07042 -5.6369,-3.71779 -7.2885,-5.88303 l -3.0028,-3.93681 -0.2651,-332.15018 -0.2652,-332.15019 2.1873,-4.51828 c 1.4601,-3.01611 3.6556,-5.37879 6.6039,-7.10658 l 4.4167,-2.58833 h 57.8885 c 38.4762,0 58.8713,0.37242 60.8195,1.11057 4.1682,1.57928 7.5897,5.00383 9.8136,9.82219 1.856,4.02169 1.9213,15.49282 1.8992,333.70932 -0.024,351.16334 0.2167,334.03464 -4.7781,339.65198 -1.0566,1.18831 -3.7953,3.02118 -6.086,4.07307 -3.8797,1.78153 -8.0512,1.91251 -60.9111,1.91251 -53.1998,0 -57.014,-0.12163 -61.0319,-1.94624 z m 256.7803,0.83825 c -3.3351,-1.3429 -8.1011,-5.8618 -9.9845,-9.46702 -1.2555,-2.40322 -1.4664,-51.029 -1.4517,-334.75054 l 0.017,-331.9389 2.3468,-4.14364 c 1.3159,-2.3233 4.1671,-5.17461 6.4905,-6.49046 l 4.1436,-2.34683 147.3841,-0.0172 c 93.1644,-0.0108 152.5359,0.3837 161.3882,1.07243 58.6426,4.56249 102.0287,19.3317 131.3208,44.70342 29.8146,25.82415 46.041,60.38325 52.0749,110.90984 0.996,8.33974 1.3655,29.42741 1.3591,77.5705 -0.01,72.01974 -0.4167,78.60345 -6.3779,103.08026 -11.5543,47.44131 -38.4591,82.01221 -79.9851,102.77548 -5.1811,2.59055 -9.5749,4.8499 -9.7642,5.02076 -0.1893,0.17087 25.5251,37.63274 57.1431,83.24859 31.618,45.61586 57.8248,82.55428 58.2375,82.08538 0.4126,-0.46892 43.2639,-135.77897 95.2252,-300.689 51.9612,-164.91005 95.4108,-301.15059 96.5544,-302.75676 1.1437,-1.60618 3.8955,-3.8468 6.1152,-4.97917 3.9248,-2.00235 6.4015,-2.05839 90.2377,-2.04173 l 86.2019,0.0172 4.1069,2.32619 c 2.2587,1.2794 4.9335,3.74161 5.9439,5.47159 3.3369,5.71354 209.1265,660.20739 209.1078,665.04699 -0.024,6.22248 -3.6132,12.04801 -9.2573,15.0255 l -4.5889,2.42084 h -59.7395 c -65.1481,0 -63.6207,0.13281 -69.419,-6.03594 -3.4469,-3.66698 -2.2365,-0.11092 -25.6788,-75.43911 l -18.0646,-58.04772 -76.5958,-0.006 c -49.4763,-0.004 -77.9665,-0.38656 -80.4677,-1.08123 -7.7984,-2.16547 -13.3075,-9.23342 -13.3075,-17.07291 0,-5.62841 25.7726,-96.24438 28.6224,-100.63566 4.9846,-7.681 4.7595,-7.64868 57.3317,-8.23215 l 46.9086,-0.52061 -32.9673,-114.1758 c -18.3055,-63.39746 -33.9653,-115.79062 -35.2113,-117.80672 -5.5694,-9.0115 -19.8313,-9.32383 -26.4452,-0.57915 -2.0217,2.67311 -19.3123,60.02599 -73.5649,244.01504 -39.0071,132.28633 -71.6745,242.25193 -72.5941,244.368 -2.0625,4.74557 -4.9554,7.54001 -9.9782,9.63869 -3.401,1.42105 -17.249,1.61152 -117.1622,1.61152 h -113.3051 l -4.6458,-2.34273 c -4.3138,-2.17532 -10.0648,-10.1368 -80.4776,-111.40998 l -75.8317,-109.06724 h -55.1011 -55.1009 v 104.74502 c 0,117.38858 0.5327,109.3778 -7.6346,114.7839 l -4.1855,2.77042 -58.385,0.20751 c -37.2576,0.13242 -59.3269,-0.17177 -60.988,-0.84062 z m 283.7074,-348.72074 c 40.3529,-2.90929 57.1456,-14.08362 65.3718,-43.50006 2.158,-7.71711 2.2427,-9.99873 2.2859,-61.63632 0.04,-47.77791 -0.1563,-54.47863 -1.8004,-61.47672 -6.3702,-27.11407 -23.7373,-40.34862 -58.5452,-44.61417 -6.0358,-0.73966 -36.1442,-1.1494 -84.5987,-1.15129 l -75.2277,-0.003 v 106.72458 106.72451 l 68.9804,-0.009 c 37.9393,-0.005 75.5295,-0.48131 83.5339,-1.05839 z M 347.65661,411.38577 c -5.18217,-1.30328 -6.93267,-2.6397 -16.72268,-12.767 -21.13513,-21.86326 -40.06252,-49.19094 -54.07411,-78.07315 -7.49659,-15.45277 -8.63438,-21.34593 -5.34815,-27.7008 2.00176,-3.87099 7.22206,-8.372 10.73142,-9.2528 1.44405,-0.36243 17.58552,-0.0706 35.86991,0.64859 26.66031,1.04858 40.10499,1.04907 67.88514,0.002 38.73859,-1.45946 37.8825,-1.56864 44.21009,5.63808 6.71383,7.64663 5.30059,15.32869 -7.1984,39.12906 -12.03606,22.91889 -29.3186,47.25294 -48.70621,68.57902 -11.00343,12.10399 -18.31864,15.89145 -26.64701,13.79692 z M 137.85184,179.58969 c -22.0839,-6.05176 -39.591603,-24.73834 -44.367931,-47.35544 -5.578588,-26.41599 8.651471,-54.768677 33.435181,-66.617935 33.41817,-15.977453 72.16904,1.210409 84.46421,37.463925 2.95143,8.70258 2.68563,27.38198 -0.51858,36.44251 -6.37918,18.03846 -20.52421,32.42796 -37.90022,38.55527 -8.5423,3.01227 -26.77266,3.79712 -35.11266,1.51167 z m 397.74402,0 c -16.16756,-4.43049 -31.79241,-17.17682 -38.90442,-31.73722 -7.60647,-15.57268 -8.58136,-30.38728 -3.09254,-46.99473 10.25087,-31.015895 44.98369,-48.518295 75.83644,-38.215137 15.71974,5.249545 28.75702,16.631676 35.79868,31.253848 15.9961,33.216279 0.0832,71.741259 -34.8281,84.318289 -8.14524,2.93437 -26.47715,3.65847 -34.81006,1.37495 z M 337.54472,124.37161 c -22.00835,-5.33595 -40.36428,-24.39781 -45.06791,-46.801134 -4.25754,-20.278541 1.80384,-40.395249 16.63083,-55.19494 24.0559,-24.0116146 61.48733,-24.0469065 85.51314,-0.08062 18.81345,18.766828 23.33039,46.117413 11.613,70.318111 -3.99303,8.247103 -17.33423,22.087363 -25.44102,26.392713 -11.96359,6.35363 -29.96297,8.58685 -43.24804,5.36588 z"
     style="fill:#b9c3d0;stroke-width:1.0412147" />
  <path
     inkscape:connector-curvature="0"
     id="path136"
     d="m 815.4007,973.49651 c -6.32382,-1.06368 -11.1195,-3.86573 -13.45226,-7.85997 -1.00864,-1.72703 -7.97005,-23.02933 -15.46979,-47.33842 -14.60331,-47.33409 -15.11488,-50.01676 -10.67265,-55.96665 3.96345,-5.3086 7.05401,-6.70573 18.20637,-8.23042 38.97231,-5.32806 64.53262,-26.7273 73.96783,-61.92627 l 2.32153,-8.66071 0.54293,-267.2557 0.54294,-267.25571 2.14677,-2.87519 c 1.18072,-1.58134 3.44034,-3.84123 5.02137,-5.02194 2.81353,-2.10115 4.13387,-2.15283 62.14082,-2.43202 57.43984,-0.27646 59.39154,-0.22131 63.33354,1.78975 2.2371,1.14126 5.1688,3.84664 6.515,6.01194 l 2.4477,3.93692 0.311,267.07158 c 0.2178,187.02538 -0.031,271.12851 -0.8287,280.60737 -4.0996,48.68875 -24.00255,90.99928 -58.15523,123.62855 -32.04014,30.61096 -73.10046,48.52589 -118.76757,51.81916 -7.77865,0.56095 -14.37728,0.96891 -14.66361,0.90658 -0.28633,-0.0624 -2.75593,-0.48931 -5.48799,-0.94885 z M 135.80746,927.55726 c -5.27284,-1.53658 -9.18066,-4.67646 -11.51498,-9.25209 -2.5669,-5.03154 -2.71069,-14.94959 -0.48282,-33.30376 7.10324,-58.51974 29.0666,-116.89747 66.64938,-177.15135 8.74094,-14.01376 11.92254,-17.92318 16.5539,-20.34084 3.95278,-2.06344 11.877,-2.032 15.92865,0.0632 6.59957,3.41277 59.61046,61.81803 78.57497,86.57071 7.42516,9.69142 8.60276,12.5458 8.59115,20.8243 -0.009,6.82195 -0.40054,8.05497 -6.10794,19.26247 -15.26622,29.97797 -23.75973,56.75669 -27.70898,87.3621 -1.74543,13.52654 -2.23208,15.36496 -4.96127,18.74187 -1.66431,2.0593 -4.61626,4.68128 -6.55987,5.82662 -3.41512,2.01246 -5.58056,2.08856 -64.44493,2.26505 -38.46615,0.11534 -62.2399,-0.20462 -64.51726,-0.86828 z m 305.55847,-0.3578 C 436.12751,925.3472 430.8848,919.738 429.53112,914.5373 428.9592,912.34003 427.76347,904.88543 426.87394,897.97152 421.32947,854.87649 401.98763,810.58669 367.22733,761.39007 337.64665,719.52421 312.82099,691.82214 212.89969,589.18137 155.66665,530.39067 125.03631,496.22 97.925619,460.91829 52.165794,401.33294 24.166212,346.81123 10.276936,290.24588 6.5952238,275.25177 2.5099466,250.60907 2.4995692,243.33222 c -0.01386,-9.71919 8.7988378,-18.42986 18.6457358,-18.42986 2.335807,0 9.539225,1.98961 16.440612,4.54095 28.593047,10.57044 64.931163,21.72081 97.340263,29.86892 9.21327,2.31634 17.97465,4.85267 19.46976,5.63629 5.29056,2.7729 9.38309,8.38296 13.70176,18.78247 18.14724,43.6991 45.16495,82.96413 95.64541,139.00217 19.83102,22.01429 72.67413,76.9571 77.71133,80.79915 4.24825,3.2403 11.10729,4.31551 16.39572,2.57018 3.7934,-1.25194 31.98389,-29.16172 64.2533,-63.6135 61.23174,-65.3728 96.51517,-114.91895 114.53972,-160.84042 5.12792,-13.06452 10.49464,-17.52016 24.98305,-20.74182 24.91986,-5.54122 68.69158,-18.50304 98.88433,-29.28192 10.35668,-3.69735 20.34019,-6.71218 22.18557,-6.6996 4.22161,0.0287 10.98606,3.10481 13.95835,6.34737 4.94434,5.39393 5.54836,11.69618 2.86937,29.93865 -10.63221,72.39954 -48.4786,147.09093 -114.55415,226.07723 -25.17585,30.09505 -45.20917,51.8586 -91.53065,99.436 -17.28409,17.75271 -31.97152,33.30109 -32.63874,34.55194 -1.52242,2.85414 -1.56963,9.17043 -0.0892,11.93659 0.61814,1.15501 7.72358,10.82551 15.78985,21.49001 64.37102,85.10551 98.02394,163.33679 104.8895,243.83144 0.70764,8.29658 0.67651,13.20986 -0.10204,16.10108 -1.43303,5.32186 -7.5699,11.48194 -12.91776,12.96663 -2.80687,0.77925 -23.26591,1.13688 -63.49061,1.10984 -48.4233,-0.0326 -60.11597,-0.311 -63.5141,-1.51255 z m 693.64037,0.0731 c -5.1977,-1.8766 -7.8671,-4.34595 -10.2072,-9.44174 -1.843,-4.01369 -1.9125,-16.14562 -1.9125,-334.22993 0,-317.99813 0.07,-330.21891 1.9115,-334.273 2.3403,-5.15232 7.3837,-9.56017 11.8695,-10.37389 1.8443,-0.33455 29.1603,-0.47032 60.702,-0.30173 l 57.3487,0.30654 3.8237,2.91716 c 2.1032,1.60444 4.6433,4.41572 5.645,6.24729 1.7231,3.1511 1.8209,21.18628 1.8209,335.47763 v 332.1475 l -2.3952,3.85207 c -1.3173,2.11864 -4.1286,4.92992 -6.2473,6.24729 l -3.852,2.39517 -57.2668,0.23212 c -46.4786,0.1884 -58.0154,-0.0381 -61.2403,-1.20252 z m 254.9062,-0.47697 c -4.8183,-2.22381 -8.2429,-5.64535 -9.8222,-9.81351 -0.7781,-2.05374 -1.1106,-101.97295 -1.1106,-333.80586 V 252.30148 l 2.3976,-4.53402 c 1.6389,-3.099 3.8328,-5.29287 6.9317,-6.93166 l 4.5341,-2.39765 144.3048,0.0161 c 85.9012,0.009 150.6258,0.44147 159.9229,1.0671 43.3299,2.91578 77.9191,11.25659 105.4555,25.42937 48.7329,25.08251 74.2555,66.28844 81.606,131.75206 1.9067,16.98112 1.9244,133.46564 0.023,149.38413 -3.1627,26.47389 -9.4954,48.68094 -19.4086,68.06112 -14.3975,28.14696 -36.1106,49.36838 -65.6918,64.20439 l -10.4674,5.24979 57.8427,83.44036 c 32.4595,46.82422 58.141,82.91079 58.5226,82.23358 0.3739,-0.66372 43.1282,-135.85769 95.0095,-300.43102 51.8813,-164.57332 95.285,-300.77001 96.4527,-302.65931 1.1676,-1.88928 4.1274,-4.4054 6.5772,-5.59137 4.3939,-2.12699 5.6108,-2.1563 89.5387,-2.1563 69.9314,0 85.681,0.25531 88.4348,1.43358 8.3955,3.59218 1.0413,-18.32794 113.2746,337.63003 57.2124,181.45427 104.0277,331.40913 104.034,333.23302 0.025,7.07918 -3.8698,12.80633 -10.9212,16.0608 -3.8935,1.79697 -7.9976,1.9222 -62.9935,1.9222 -55.2336,0 -59.0905,-0.11893 -63.1144,-1.94624 -2.3571,-1.07042 -5.4667,-3.52 -6.9103,-5.4435 -1.8347,-2.4447 -8.5042,-22.4566 -22.1598,-66.49077 -10.7444,-34.64642 -19.9506,-63.81345 -20.4582,-64.81562 -0.8668,-1.71112 -5.7128,-1.82213 -79.5497,-1.82213 -86.9341,0 -81.9901,0.38295 -87.4486,-6.77344 -5.208,-6.82811 -5.01,-8.07738 9.3904,-59.2339 7.2371,-25.70968 13.6657,-47.73137 14.2858,-48.93709 0.6201,-1.20572 2.1231,-3.29098 3.3401,-4.63388 4.9089,-5.4171 4.3978,-5.36745 55.2628,-5.36745 26.0849,0 47.427,-0.19266 47.427,-0.42813 0,-2.05892 -66.1619,-228.99701 -67.5686,-231.76276 -5.4816,-10.77846 -20.8093,-11.34072 -28.3843,-1.04121 -1.0529,1.43167 -34.1827,111.9296 -73.6215,245.55097 -43.281,146.63854 -72.5282,244.04949 -73.7782,245.72668 -1.1392,1.5283 -3.662,3.71583 -5.6065,4.86117 -3.4782,2.04871 -5.4081,2.08243 -119.1907,2.08243 h -115.6551 l -3.8247,-2.60304 c -2.7879,-1.89746 -24.2296,-31.95498 -79.1035,-110.88937 l -75.2786,-108.28633 -55.3933,-0.26943 -55.3932,-0.26943 v 104.70292 c 0,88.10151 -0.2329,105.14871 -1.4689,107.51454 -2.2046,4.22012 -7.0977,8.453 -11.0972,9.60004 -2.1308,0.61109 -25.9162,1.01153 -59.2709,0.99784 -51.9376,-0.0213 -55.994,-0.15309 -59.8767,-1.94507 z m 288.7816,-347.95318 c 36.0757,-3.37929 53.2948,-15.36122 60.7745,-42.28994 2.1493,-7.73783 2.2788,-10.64151 2.6472,-59.33273 0.3281,-43.35668 0.1332,-52.68435 -1.2722,-60.91106 -4.8799,-28.56358 -21.6172,-43.17924 -55.2261,-48.22549 -8.5356,-1.28157 -24.2521,-1.56444 -87.2018,-1.56947 l -76.7895,-0.006 v 106.72436 106.72451 l 72.6247,-0.003 c 43.1618,-0.002 77.4193,-0.45268 84.4432,-1.11062 z M 343.49175,409.65186 c -4.04278,-2.09036 -10.06911,-7.96622 -20.75586,-20.23757 -18.23213,-20.93557 -34.97538,-46.18723 -46.60634,-70.29029 -4.92934,-10.21515 -5.52283,-12.17237 -5.52283,-18.21296 0,-8.10774 2.47521,-12.36588 9.17499,-15.78386 4.2458,-2.16604 4.71887,-2.18203 29.84725,-1.00887 32.08742,1.49803 53.34614,1.49878 84.2049,0.003 18.18845,-0.88166 25.31034,-0.8793 28.27653,0.009 7.35455,2.20347 13.57288,12.50151 11.83805,19.6047 -3.56343,14.59027 -25.03794,51.50768 -43.30698,74.45023 -10.13579,12.72867 -26.21927,29.59297 -30.17242,31.63722 -3.74533,1.9368 -13.08273,1.84277 -16.97729,-0.17095 z M 139.11898,179.66232 c -9.95814,-2.4112 -20.99029,-8.66639 -28.4027,-16.10422 -12.253929,-12.29594 -17.99836,-25.92677 -18.027579,-42.77721 -0.03394,-19.57786 7.675409,-35.337377 23.612229,-48.268246 10.03923,-8.145671 22.2375,-12.209064 36.83737,-12.270981 20.32942,-0.08621 38.33124,9.30256 49.67825,25.909489 16.86946,24.689318 13.77297,56.223148 -7.5932,77.327108 -8.78722,8.67938 -17.21829,13.47457 -28.27257,16.08008 -8.03093,1.8929 -20.25504,1.93857 -27.8318,0.10401 z m 399.07992,0.29766 c -7.74991,-1.45656 -21.07685,-8.34181 -27.78759,-14.35621 -12.97764,-11.63104 -19.79434,-27.2778 -19.75442,-45.34349 0.0389,-17.61739 6.05156,-31.465768 18.92535,-43.589145 12.04189,-11.339981 24.5325,-16.338546 41.16364,-16.473103 14.67922,-0.118764 28.97344,5.141956 40.24531,14.81153 6.77256,5.809837 14.91391,18.367382 17.743,27.367478 3.44384,10.9558 3.23797,27.59208 -0.46277,37.39722 -7.75107,20.53652 -23.70257,35.09973 -43.57662,39.78408 -7.39984,1.74416 -18.46071,1.91182 -26.4959,0.40164 z M 336.93387,123.88146 C 309.85347,116.78683 291.7488,93.491422 291.63611,65.596506 291.51109,34.649241 313.4507,9.540474 344.45971,5.1426052 c 24.6225,-3.4920987 49.99353,10.0164178 61.4388,32.7123918 11.93728,23.671613 7.50253,51.16386 -11.29605,70.027383 -15.53287,15.58653 -36.7622,21.47621 -57.66859,15.99908 z"
     style="fill:#a7b5c4;stroke-width:1.0412147" />
  <path
     inkscape:connector-curvature="0"
     id="path134"
     d="m 816.36725,973.39312 c -7.07803,-0.98637 -12.60288,-4.05236 -14.73623,-8.17779 -0.8286,-1.60233 -7.66024,-22.97001 -15.18143,-47.48373 -14.57868,-47.51609 -14.97658,-49.59655 -10.60536,-55.45135 3.77142,-5.0514 6.83968,-6.44983 17.50105,-7.97652 13.76105,-1.97055 23.15216,-4.75984 33.41729,-9.92538 18.74725,-9.43386 32.18179,-24.79887 39.08564,-44.70205 5.1385,-14.81381 5.00608,-7.24181 5.01264,-286.6512 0.007,-288.3502 -0.57227,-265.40948 6.84208,-271.06575 l 3.93324,-3.00059 58.78964,-0.28565 c 57.8498,-0.28107 58.86169,-0.25076 63.29629,1.896 2.6644,1.28983 5.4804,3.74759 6.8887,6.01233 l 2.382,3.83068 0.3047,264.46855 c 0.2013,174.73236 -0.061,269.64637 -0.7722,279.72854 -2.5509,36.14572 -12.60185,66.74163 -31.07284,94.58815 -18.54238,27.95417 -41.96601,48.70449 -72.06052,63.83634 -23.91006,12.02224 -48.07187,18.85985 -70.8026,20.03661 -6.01301,0.31129 -12.10412,0.70201 -13.53579,0.86826 -1.43167,0.16626 -5.34051,-0.0792 -8.6863,-0.54545 z M 136.80389,927.81075 c -5.76047,-1.79657 -9.41069,-4.48241 -11.92674,-8.77574 -3.35346,-5.72226 -3.48652,-13.83522 -0.59541,-36.30541 7.68337,-59.71644 29.3613,-115.99921 69.0937,-179.38907 6.04271,-9.64065 9.46666,-13.6536 13.40517,-15.71118 3.6121,-1.88704 12.61427,-1.891 16.25727,-0.007 5.55911,2.87473 51.12641,52.60426 72.9721,79.63757 12.50733,15.47741 14.02133,18.46626 14.03523,27.70765 0.0105,6.99962 -0.30353,7.92092 -7.92367,23.24379 -13.65257,27.45313 -22.00266,53.7229 -25.35255,79.76031 -2.06784,16.07244 -3.00574,19.56228 -6.31404,23.49397 -5.95098,7.07234 -2.77972,6.75724 -70.13023,6.96831 -33.50108,0.10498 -62.08545,-0.17539 -63.52083,-0.62306 z m 308.7269,0.44104 c -0.57267,-0.19104 -2.29361,-0.62245 -3.82431,-0.95871 -3.6202,-0.79527 -8.82747,-5.21873 -10.93019,-9.28495 -0.9155,-1.77037 -2.07717,-6.98571 -2.58152,-11.58965 C 421.02743,840.99041 388.86055,780.54322 318.6149,700.49879 298.39922,677.46315 277.93582,655.79387 228.91506,605.51309 166.40614,541.39741 144.31436,517.61989 118.58848,486.76787 63.241496,420.39241 28.162817,357.80668 11.888885,296.39948 8.2313056,282.59815 3.943467,259.76658 2.9580057,248.84498 1.9126724,237.25983 5.0281811,230.71721 13.426681,226.86061 c 6.2731,-2.88062 10.388456,-2.40987 24.548898,2.80811 29.030663,10.6975 64.602091,21.60358 96.745661,29.66189 9.44519,2.36789 18.34758,4.92116 19.78308,5.67396 5.02338,2.63433 9.38104,8.43801 12.92066,17.20819 8.9499,22.17529 18.92632,40.63061 34.18689,63.24214 22.98736,34.06025 51.69301,67.70809 104.56791,122.5711 30.28375,31.42245 35.62841,36.57251 39.47017,38.03315 3.84083,1.46028 10.51286,1.24446 13.77203,-0.44548 2.68125,-1.3903 31.8018,-30.41763 53.899,-53.7265 66.91318,-70.58225 101.59785,-117.91014 121.32705,-165.55314 5.14082,-12.41428 9.40215,-18.71717 14.40289,-21.30315 1.60295,-0.82892 10.59356,-3.43658 19.97915,-5.79479 33.72063,-8.47264 64.39613,-17.72969 93.08403,-28.09029 9.50826,-3.43389 18.78389,-6.23315 20.61251,-6.22057 5.02685,0.0346 11.54595,3.45607 14.85762,7.7979 4.20931,5.51869 4.44148,12.71895 1.05751,32.79763 -12.39148,73.52467 -47.94475,142.79554 -113.82221,221.76772 -24.81166,29.74355 -45.23503,51.94462 -92.43177,100.47722 -16.70716,17.18004 -30.92204,32.25987 -31.58862,33.51072 -0.66658,1.25086 -1.21195,4.35683 -1.21195,6.90217 0,4.26177 0.79159,5.64689 10.0063,17.5088 64.66034,83.23598 100.53315,160.82081 110.18428,238.3039 2.39617,19.2375 2.43049,28.83285 0.12032,33.63795 -2.29516,4.77383 -6.90774,8.44512 -12.54518,9.98501 -3.77074,1.03 -118.84035,1.6322 -121.82212,0.63754 z m 689.28411,-1.03058 c -5.1872,-1.86089 -9.4517,-6.49335 -10.8881,-11.82761 -0.7627,-2.83233 -1.0172,-105.00455 -0.832,-334.0104 0.2522,-311.88887 0.3663,-330.11196 2.0877,-333.25999 1.0017,-1.83157 3.5418,-4.64285 5.645,-6.24729 l 3.8238,-2.91716 58.3898,-0.28277 58.3898,-0.28277 4.6771,2.3652 c 2.5724,1.30086 5.7351,3.95727 7.0282,5.90312 l 2.3511,3.53794 v 332.61706 c 0,307.45193 -0.1304,332.89204 -1.7245,336.25131 -0.9485,1.99882 -3.6078,4.88091 -5.9096,6.40464 l -4.1852,2.77042 -57.3442,0.23621 c -47.6294,0.1962 -58.0496,-0.0169 -61.5089,-1.25791 z m 256.3302,0.0338 c -5.1885,-1.85044 -7.8633,-4.32007 -10.2071,-9.42423 -1.843,-4.01337 -1.9134,-16.18102 -1.9353,-334.52368 -0.019,-275.14759 0.2122,-330.92149 1.3837,-333.72558 1.8645,-4.46223 8.1263,-9.84476 12.3672,-10.6306 6.666,-1.23521 306.7917,0.13795 317.3324,1.45189 40.6481,5.06695 64.7741,11.20456 88.1066,22.41419 17.2032,8.26498 28.5762,16.22222 41.004,28.68892 23.7717,23.84596 36.4579,51.09312 43.4044,93.22292 1.7012,10.31721 1.8885,18.94164 1.8885,86.94143 0,74.6542 -0.027,75.63758 -2.4423,89.02386 -10.2369,56.73601 -37.0106,94.47435 -83.5978,117.83353 l -10.0312,5.0298 57.756,83.29718 c 31.7659,45.81345 58.0384,83.20781 58.3832,83.09858 0.345,-0.10923 43.1386,-135.05066 95.0969,-299.86984 51.9584,-164.81918 95.2223,-301.07688 96.1421,-302.79489 0.9198,-1.718 3.3834,-4.29501 5.4747,-5.72668 l 3.8024,-2.60304 84.9358,-0.30245 c 46.7146,-0.16635 86.4864,-0.0227 88.3818,0.31913 4.9431,0.89163 10.8432,6.6605 12.93,12.64242 5.6336,16.14842 206.2707,654.38533 206.6932,657.50149 1.0935,8.06553 -4.6119,16.21769 -12.9758,18.54035 -4.9308,1.36929 -114.6058,1.4666 -120.4684,0.10689 -5.3935,-1.2509 -8.9695,-4.01373 -11.6318,-8.98684 -1.1991,-2.23994 -11.0134,-32.52839 -21.8095,-67.30765 l -19.6292,-63.23502 -79.709,-0.27908 -79.7089,-0.27912 -3.5053,-2.50003 c -3.7806,-2.69642 -7.3677,-9.36455 -7.4046,-13.76455 -0.039,-4.62205 26.5736,-97.65666 28.7796,-100.61146 1.1232,-1.50424 3.3354,-3.70103 4.9163,-4.88175 2.7928,-2.08588 4.2485,-2.155 51.3209,-2.43725 l 48.4464,-0.29048 -0.5927,-2.31255 c -4.8501,-18.92474 -66.5155,-229.53888 -67.7643,-231.44481 -3.2273,-4.92548 -7.6805,-6.85546 -14.8831,-6.45024 -5.7123,0.32138 -6.9343,0.7865 -10.0821,3.83748 -1.9701,1.90948 -4.0803,4.69875 -4.6893,6.19842 -0.609,1.49965 -32.955,110.72663 -71.8799,242.72663 -38.925,132 -71.5998,241.58831 -72.6105,243.52958 -1.0107,1.94126 -3.6856,4.75254 -5.944,6.24729 l -4.1063,2.7177 -112.0071,0.32443 c -78.6613,0.22785 -113.5876,-0.0163 -117.3161,-0.82039 -3.3653,-0.72566 -6.415,-2.23559 -8.3297,-4.12407 -1.6614,-1.6386 -36.5218,-51.26008 -77.4675,-110.26994 l -74.4469,-107.29066 -55.4447,-0.0593 -55.4446,-0.0594 v 104.15492 c 0,85.61211 -0.2528,104.76006 -1.4203,107.55403 -1.8107,4.33371 -6.9241,8.64548 -11.8876,10.02396 -6.2859,1.74579 -112.1642,1.36492 -117.1732,-0.42148 z m 302.8021,-350.28943 c 26.5006,-5.86162 40.4121,-18.73177 46.0019,-42.55841 1.7046,-7.26589 1.894,-13.53912 1.894,-62.73692 0,-49.9412 -0.1656,-55.24846 -1.9166,-61.43167 -7.083,-25.01232 -23.0689,-37.59709 -53.6052,-42.20007 -8.1343,-1.22617 -24.9646,-1.51985 -87.3849,-1.5248 l -77.3102,-0.006 v 106.79298 106.79299 l 80.9544,-0.41246 c 78.9141,-0.40205 81.2168,-0.4705 91.3666,-2.7155 z M 343.15005,409.5248 c -7.15539,-3.5259 -32.46536,-33.15278 -46.40834,-54.32382 -14.52062,-22.04812 -26.6556,-46.91327 -26.6556,-54.61857 0,-6.04655 2.98364,-11.09649 8.63798,-14.62014 l 4.7736,-2.9748 27.91461,1.30393 c 19.74618,0.92237 37.35973,1.0407 60.19224,0.40438 51.55087,-1.43664 50.52054,-1.47321 55.00875,1.95238 5.0477,3.85262 7.15022,8.17944 7.10039,14.61207 -0.0815,10.52312 -22.11332,49.94404 -42.74383,76.48037 -10.10617,12.99921 -26.91297,30.3935 -31.04553,32.13073 -4.52717,1.90311 -12.54502,1.73747 -16.77427,-0.34653 z M 141.49609,180.10721 C 124.7654,176.74902 108.79861,165.27212 100.50083,150.63987 92.704878,136.89254 90.452742,117.3442 95.021548,103.08024 101.3496,83.32385 118.174,67.17586 137.89905,61.926582 c 7.51055,-1.998725 22.54616,-1.942379 30.51834,0.114369 16.42183,4.236681 30.68413,15.795369 38.13022,30.902132 9.29564,18.859127 9.43199,36.501927 0.42357,54.807037 -7.52289,15.28652 -24.28137,28.40666 -40.73867,31.89412 -7.58729,1.60782 -18.05651,1.80376 -24.73642,0.46297 z m 394.22058,-1.06403 c -19.01281,-4.97927 -33.82019,-18.22497 -41.26999,-36.91739 -3.49296,-8.76425 -4.7269,-25.0755 -2.62723,-34.72926 4.6223,-21.25228 22.49177,-39.793067 43.82362,-45.469948 7.51055,-1.998725 22.54616,-1.942379 30.51834,0.114369 44.99842,11.609182 60.30367,68.178789 27.31306,100.951599 -15.85557,15.75088 -36.74081,21.5548 -57.7578,16.05063 z M 338.80628,124.36932 c -26.9529,-5.78287 -47.06451,-30.829895 -47.13099,-58.697004 -0.0534,-22.38432 10.11759,-40.28683 29.78746,-52.430499 9.56841,-5.9072909 17.96727,-8.1672655 30.43726,-8.1900949 8.61798,-0.015778 11.95654,0.472862 18.70217,2.7372932 43.18932,14.4981807 55.97806,67.6951707 24.03445,99.9754947 -14.77348,14.92921 -35.25233,21.01993 -55.83035,16.60481 z"
     style="fill:#8d9fb4;stroke-width:1.0412147" />
  <path
     inkscape:connector-curvature="0"
     id="path132"
     d="m 810.99715,972.26388 c -5.40893,-1.91772 -8.63342,-4.85503 -10.33407,-9.41374 -0.90526,-2.4266 -7.53418,-23.62241 -14.73094,-47.1018 -14.91353,-48.65529 -14.89764,-48.5406 -7.71627,-55.72197 2.5496,-2.5496 5.29707,-4.21353 7.47375,-4.52626 32.31925,-4.64344 46.08052,-10.49941 61.92455,-26.35135 6.90173,-6.90517 9.40524,-10.33871 13.28579,-18.22126 2.62987,-5.34202 5.83117,-13.46116 7.114,-18.0425 l 2.33243,-8.32972 0.52061,-267.59218 0.5206,-267.59219 2.50003,-3.50528 c 1.37502,-1.9279 4.42057,-4.37749 6.7679,-5.44351 3.99332,-1.81355 7.93069,-1.9397 61.20659,-1.9611 37.67259,-0.0151 57.93051,0.35106 59.86988,1.08221 5.297,1.99706 9.5222,7.08423 10.7346,12.92465 0.7801,3.75772 1.014,86.70347 0.7799,276.53669 -0.3688,299.0424 0.1243,276.53466 -6.6486,303.4373 -16.75006,66.53252 -69.52396,118.59574 -137.69219,135.83796 -18.66697,4.72154 -49.78921,6.86273 -57.90856,3.98405 z M 1137.1403,927.6518 c -5.355,-1.29083 -8.6214,-3.60996 -11.4177,-8.10664 l -2.3611,-3.79682 -0.3077,-327.46204 c -0.1694,-180.10411 -0.022,-329.89825 0.3287,-332.87587 0.8158,-6.93964 4.0056,-11.68245 9.8393,-14.62954 l 4.6374,-2.34274 56.7859,0.0229 c 53.1268,0.0213 57.0608,0.14776 61.0537,1.9611 2.3473,1.06602 5.3928,3.51561 6.7679,5.44351 l 2.5,3.50528 0.2651,333.03841 0.2651,333.0384 -2.21,3.93212 c -1.2197,2.17044 -4.1375,5.03672 -6.5123,6.39759 l -4.3024,2.46544 -55.705,0.17712 c -30.6378,0.0975 -57.4699,-0.24829 -59.6269,-0.76823 z m 256.0887,0.1037 c -5.4231,-1.0493 -9.1233,-3.9784 -11.9065,-9.42541 l -2.3428,-4.58483 0.011,-329.58414 c 0,-213.08553 0.3681,-330.88861 1.031,-333.27459 1.276,-4.5931 6.7989,-10.07104 11.5183,-11.42456 4.9198,-1.41099 277.9725,-1.34885 301.3711,0.0686 54.7426,3.31618 94.9535,14.46526 125.4892,34.79376 35.4727,23.61505 55.8172,58.78006 64.1751,110.9251 1.7344,10.82065 1.9192,19.09452 1.9192,85.90022 0,66.37431 -0.1922,75.09626 -1.8815,85.37961 -6.8176,41.50222 -20.896,70.81257 -45.4131,94.5469 -12.3986,12.0027 -20.8055,18.02186 -36.5283,26.1535 l -12.2962,6.35944 57.906,83.5347 c 31.8482,45.94409 58.2229,83.18643 58.6104,82.76075 0.3873,-0.42568 43.3548,-136.11829 95.4831,-301.53914 86.6228,-274.88342 95.0611,-301.05637 98.0586,-304.14898 1.8038,-1.8611 5.0629,-3.91806 7.2424,-4.57104 2.824,-0.84614 28.0199,-1.18724 87.6992,-1.18724 h 83.7367 l 4.6373,2.34274 c 2.5506,1.2885 5.5852,3.77122 6.7436,5.51714 1.1584,1.74595 48.8938,151.58182 106.0787,332.96863 113.9883,361.56392 105.9511,334.07616 99.9727,341.91426 -5.6298,7.38102 -2.4593,7.062 -70.1798,7.062 -59.5697,0 -60.9912,-0.0471 -64.5518,-2.13873 -2.0023,-1.17629 -4.5793,-3.53179 -5.7267,-5.23444 -1.1473,-1.70263 -11.1725,-32.2415 -22.2783,-67.86415 l -20.1924,-64.76845 -79.7642,-0.2791 -79.7688,-0.27914 -3.5053,-2.50003 c -3.7382,-2.66612 -7.368,-9.35351 -7.403,-13.6388 -0.035,-4.32799 26.829,-98.12658 28.8973,-100.89693 1.0575,-1.41639 3.2161,-3.54131 4.797,-4.72203 2.7926,-2.0857 4.2494,-2.15502 51.2155,-2.43705 26.5876,-0.15966 48.3412,-0.65153 48.3412,-1.09305 0,-0.44153 -14.931,-52.47552 -33.18,-115.63109 -20.0501,-69.38895 -33.999,-115.92726 -35.2498,-117.60543 -3.2162,-4.31516 -8.081,-6.66164 -13.8108,-6.66164 -6.3474,0 -11.2539,2.83912 -14.2716,8.25825 -1.2116,2.17581 -34.1443,112.19027 -73.1836,244.4766 -39.0394,132.28634 -71.7062,242.05261 -72.593,243.92506 -2.1034,4.44154 -6.1584,7.24142 -12.4281,8.58131 -3.3766,0.72161 -42.2215,0.98699 -116.4761,0.79575 -123.2409,-0.3174 -114.5333,0.18031 -120.4794,-6.88633 -1.4022,-1.66647 -35.9996,-51.11905 -76.8829,-109.89464 l -74.3335,-106.86471 -54.6944,0.2694 -54.6944,0.26939 -0.5206,105.8676 c -0.5159,104.89424 -0.5404,105.89403 -2.6674,108.74261 -3.2528,4.35616 -7.0381,6.79335 -12.0573,7.763 -5.5436,1.07097 -108.1169,1.03428 -113.6725,-0.0406 z m 287.5665,-348.87605 c 28.5497,-2.92975 45.2401,-12.08706 53.7457,-29.48809 7.3377,-15.01117 7.3019,-14.63531 7.3019,-76.6799 0,-61.409 -0.031,-61.75205 -6.7613,-75.5669 -3.8612,-7.92524 -12.9423,-16.75829 -21.8537,-21.25676 -18.2266,-9.20075 -36.239,-10.6483 -127.0466,-10.20996 l -64.0347,0.30911 -0.2652,106.98481 -0.2652,106.98482 h 74.3415 c 43.7548,0 78.6599,-0.44317 84.8376,-1.07713 z M 130.91406,925.10432 c -8.7114,-5.22169 -10.0405,-12.22683 -7.11025,-37.47516 6.66552,-57.43291 26.75455,-113.10775 61.91135,-171.58152 12.20147,-20.29381 16.25267,-25.73928 20.87802,-28.06341 4.33272,-2.17708 11.27479,-2.35701 15.8908,-0.41186 8.75494,3.68925 82.72397,87.89847 86.20523,98.13938 0.75713,2.22728 1.39288,6.64143 1.41278,9.8092 0.0321,5.10217 -0.93067,7.77631 -8.43405,23.42733 -4.65863,9.71726 -9.88322,21.41766 -11.61022,26.00091 -7.22837,19.18332 -12.80451,42.19164 -14.25648,58.82518 -0.86087,9.86217 -2.07192,13.79976 -5.49568,17.86868 -5.22201,6.20598 -3.72343,6.08016 -72.29012,6.06941 l -62.76663,-0.009 -4.33475,-2.59829 z m 308.37176,0.97766 C 431.71054,922.13211 429.61231,918.23077 428.234,905.5327 422.23927,850.30441 396.31241,795.83009 346.26223,733.30373 319.71032,700.13313 295.95312,674.20572 231.07072,607.58953 208.1806,584.08772 184.96036,560.17351 179.4702,554.44683 93.46602,464.73743 44.123785,392.78841 19.520945,321.21473 10.679232,295.49273 3.4197502,261.99802 3.146315,245.66339 c -0.1172861,-7.00651 0.1907267,-8.36112 2.8004257,-12.31601 3.2245593,-4.88669 9.4484633,-8.38425 14.9871653,-8.42215 1.838302,-0.0126 12.380601,3.20414 23.427331,7.14826 30.569895,10.91465 55.924723,18.61734 89.525733,27.19751 24.62632,6.28843 28.10972,8.63739 33.18506,22.37757 13.39037,36.25101 44.53126,82.7438 88.93399,132.77686 27.52564,31.01594 83.2124,88.57532 88.21493,91.1814 4.79314,2.497 12.41545,1.87634 17.17637,-1.39862 4.29146,-2.95202 38.9026,-38.12073 64.01562,-65.04689 58.12372,-62.32019 90.28679,-107.3951 110.1137,-154.31877 5.23086,-12.37969 8.55417,-17.19829 13.72514,-19.90063 1.49774,-0.78271 11.33722,-3.57571 21.86551,-6.20665 33.50775,-8.37334 67.8564,-18.85132 95.98094,-29.27876 13.3755,-4.95911 16.53157,-5.37637 22.33244,-2.95261 5.00939,2.09306 7.31249,4.26001 9.88513,9.30078 2.52326,4.94404 2.19748,13.37077 -1.28333,33.1948 -13.46982,76.71379 -54.47779,151.6837 -130.2779,238.17125 -19.53266,22.28667 -36.63363,40.56009 -74.62074,79.73677 -19.37523,19.98198 -32.1303,33.9551 -33.08845,36.24825 -2.04876,4.90341 -0.70713,9.88475 4.34974,16.15008 44.27103,54.85063 79.09061,115.31498 97.73541,169.718 11.80749,34.45265 20.22084,78.5199 19.12693,100.18254 -0.32705,6.47636 -0.85965,8.38887 -3.1853,11.43796 -5.59874,7.34033 -2.9042,7.0787 -72.82888,7.07156 -54.9476,-0.005 -63.22799,-0.21073 -65.95746,-1.63391 z M 342.88464,409.21564 c -4.00772,-2.11852 -18.27047,-17.13943 -29.28154,-30.83805 -19.86629,-24.71517 -42.34115,-64.72145 -43.22694,-76.94594 -0.51161,-7.06051 2.66581,-12.52361 9.25589,-15.91412 l 4.86046,-2.50065 21.57041,1.13797 c 27.50621,1.45111 63.99044,1.4522 91.46585,0.003 l 21.51917,-1.13526 4.9102,2.43677 c 7.25662,3.60124 9.88013,8.11719 9.3852,16.15512 -0.33978,5.51818 -1.53183,8.70791 -8.40742,22.49712 -13.03307,26.13815 -32.94505,54.48858 -52.5645,74.84065 -4.78588,4.96459 -10.26693,9.76933 -12.1801,10.67719 -4.66867,2.21543 -12.69625,2.02363 -17.30668,-0.4135 z M 139.93427,179.5537 c -21.25896,-4.56122 -39.70231,-22.37967 -45.263278,-43.72965 -2.005039,-7.69787 -2.032977,-23.18247 -0.05524,-30.61417 2.846761,-10.697187 7.656204,-18.814076 16.126044,-27.215895 12.13379,-12.036359 25.37046,-17.603552 41.85456,-17.603552 10.56602,0 17.48251,1.512957 26.38346,5.771284 21.02501,10.05863 34.13967,30.575319 34.24805,53.577953 0.081,17.19414 -5.66166,31.31507 -17.61283,43.30903 -14.81326,14.86632 -35.18017,20.90351 -55.68077,16.505 z m 398.07426,0.0527 c -22.02458,-4.78758 -39.85774,-21.9993 -45.5487,-43.96144 -0.89991,-3.47288 -1.6362,-10.24803 -1.6362,-15.0559 0,-17.17522 5.4458,-30.257953 17.69323,-42.505385 13.12948,-13.129477 26.65903,-18.339442 45.29366,-17.441699 16.45622,0.792796 28.35621,6.073019 40.09025,17.788704 11.30128,11.283592 17.11684,25.92303 17.03057,42.87083 -0.086,16.90433 -5.69263,29.99152 -18.12492,42.30825 -14.39085,14.25708 -35.05281,20.28874 -54.79789,15.99666 z M 341.92992,124.90386 c -23.33535,-4.17442 -42.49821,-21.764 -48.32779,-44.360034 -2.05674,-7.972171 -2.11309,-23.007777 -0.11437,-30.518329 5.48319,-20.603986 22.67932,-37.800114 43.2833,-43.2832951 7.4317,-1.977742 22.9163,-1.9498038 30.61417,0.055235 20.22535,5.2680321 36.64106,21.6170431 42.8343,42.6602411 2.21947,7.541219 2.47961,21.623846 0.54818,29.674619 -7.35438,30.655133 -38.30348,51.233773 -68.83779,45.771563 z"
     style="fill:#788ea5;stroke-width:1.0412147" />
  <path
     inkscape:connector-curvature="0"
     id="path130"
     d="m 811.07827,971.98932 c -8.57712,-3.056 -8.6563,-3.23167 -24.09769,-53.45784 -15.24425,-49.58494 -15.24126,-49.56897 -10.55356,-56.52507 2.92982,-4.34755 8.68499,-6.60469 20.77663,-8.14846 18.97283,-2.42229 36.30005,-10.68095 49.28203,-23.48922 12.84664,-12.67474 19.53143,-25.5928 22.89919,-44.25163 1.16017,-6.42787 1.4159,-54.31757 1.4458,-270.75551 l 0.0363,-262.9464 2.34273,-4.62196 c 1.3874,-2.73719 3.82882,-5.48087 5.98698,-6.72822 3.54199,-2.04714 5.31498,-2.10625 63.17745,-2.10625 58.77447,0 59.57067,0.0278 62.47287,2.17817 1.6168,1.19799 3.9939,3.72715 5.2824,5.62035 l 2.3428,3.4422 v 274.1703 c 0,298.91066 0.2856,283.79903 -5.8077,307.25072 -19.89841,76.58499 -82.41413,130.9955 -161.80059,140.82302 -12.34642,1.52841 -28.84366,1.30663 -33.78567,-0.4542 z M 1845.9177,927.72231 c -63.7717,-0.58999 -58.6913,0.15369 -65.8287,-9.63605 -2.1901,-3.00386 -36.4675,-52.19909 -76.1721,-109.32274 l -72.1901,-103.86117 h -55.0504 -55.0502 v 104.42146 104.42146 l -2.3428,4.63738 c -1.2885,2.55056 -3.9511,5.70634 -5.9168,7.01284 l -3.5739,2.37547 -59.9402,-0.28462 -59.94,-0.28464 -3.3997,-2.42482 c -1.8698,-1.33365 -4.2125,-3.91066 -5.206,-5.72668 -1.7021,-3.11111 -1.8219,-22.36207 -2.0732,-333.23172 -0.1914,-236.68146 0.055,-331.12741 0.8742,-334.16704 1.4426,-5.35737 6.6131,-10.58114 11.936,-12.05894 5.3832,-1.49456 271.2154,-1.56874 297.2179,-0.083 126.4337,7.2245 184.9627,55.5769 194.6884,160.83748 1.3571,14.68718 1.3517,130.12867 -0.01,143.16703 -3.5736,34.30337 -12.1414,60.7336 -27.224,83.98226 -13.4775,20.77432 -35.8317,40.12272 -59.4152,51.42569 -6.2354,2.98847 -8.8539,4.76091 -8.3298,5.63835 3.061,5.1243 115.2044,166.10816 115.7033,166.09405 0.3498,-0.0104 43.0061,-134.59991 94.7918,-299.08893 51.7857,-164.48901 94.996,-300.7837 96.023,-302.87707 2.3025,-4.69322 6.1636,-7.82699 11.3719,-9.22942 2.6018,-0.70058 32.9472,-0.97076 88.107,-0.78444 81.998,0.27697 84.2284,0.33718 87.6739,2.36663 1.9444,1.14533 4.4151,3.26297 5.4905,4.70585 2.1294,2.85731 208.7931,656.9444 209.718,663.75401 0.6821,5.02247 -2.6603,12.25174 -7.1928,15.55727 -2.8783,2.09918 -4.2204,2.14909 -65.0759,2.42073 -58.9849,0.26328 -62.32,0.17869 -65.7476,-1.66745 -1.9859,-1.06964 -4.4545,-3.07493 -5.4859,-4.45622 -1.5265,-2.04473 -16.5825,-49.03965 -39.2404,-122.4834 l -3.2926,-10.67245 h -78.2382 c -77.0038,0 -78.3086,-0.034 -82.6926,-2.1563 -6.0219,-2.91517 -9.1768,-8.14753 -9.0363,-14.98705 0.1311,-6.38285 25.5298,-96.6704 28.2756,-100.51391 1.0227,-1.43167 3.9227,-3.65727 6.4443,-4.94577 4.5529,-2.32639 4.9103,-2.34274 51.2189,-2.34274 32.1495,0 46.634,-0.34273 46.634,-1.10348 0,-2.10961 -64.7479,-225.38704 -66.5698,-229.55997 -5.8449,-13.38735 -23.9535,-14.19222 -30.593,-1.35978 -0.9893,1.91213 -33.6259,111.4766 -72.5257,243.4766 -38.8998,131.99999 -71.7152,241.92052 -72.9231,244.26784 -1.3162,2.55779 -3.7362,5.11657 -6.0396,6.38603 -3.7151,2.04756 -5.8393,2.13091 -63.7132,2.50005 -32.9284,0.21002 -85.1924,0.14759 -116.1423,-0.13874 z M 1692.906,577.5907 c 16.5778,-3.77842 25.5374,-8.14191 33.6586,-16.39212 14.5607,-14.79214 17.5056,-32.78384 16.5293,-100.98169 -0.6261,-43.73084 -1.3007,-49.2396 -7.6269,-62.27876 -9.1886,-18.93877 -28.0214,-28.75488 -60.2617,-31.40989 -6.872,-0.56591 -44.2386,-1.03635 -83.0368,-1.04541 l -70.5423,-0.0165 v 107.30274 107.30271 l 81.9956,-0.40994 c 70.298,-0.35146 83.0354,-0.64693 89.2842,-2.07114 z M 133.14702,926.28373 c -4.48614,-1.97247 -9.64623,-8.27213 -10.49895,-12.81756 -0.40123,-2.13867 -0.18732,-10.01253 0.47534,-17.49743 5.58916,-63.13106 27.66366,-123.94741 69.00542,-190.11342 4.7379,-7.58282 10.04204,-14.74969 12.04915,-16.28058 4.61226,-3.51795 12.9873,-4.41418 18.18791,-1.94634 5.77719,2.74146 51.28563,52.18785 73.87488,80.26745 11.3035,14.05082 13.66618,18.72224 13.69213,27.07158 0.0176,5.67334 -0.70125,7.72999 -7.82492,22.38612 -14.60137,30.04063 -23.15888,57.59883 -26.26772,84.59128 -1.70199,14.77745 -2.96898,18.09381 -8.5347,22.33971 l -3.82396,2.91716 -63.59579,0.23198 c -50.97437,0.18594 -64.21956,-0.0423 -66.73879,-1.14995 z m 305.43938,-0.67175 c -7.5213,-3.97308 -8.10182,-5.55692 -12.33399,-33.65074 -6.6635,-44.23327 -28.51332,-90.57634 -66.7536,-141.58305 C 329.09137,709.81928 308.13151,686.60886 221.01517,597.02489 156.56901,530.75325 134.97008,507.07687 107.01499,472.05985 52.309624,403.53499 19.597688,338.92938 7.2907409,275.10588 3.4391634,255.13171 2.2317957,243.27842 3.5501259,238.38251 5.530208,231.02905 13.849926,224.92899 21.927435,224.90817 c 1.239407,-0.003 8.50188,2.275 16.138828,5.06267 30.578491,11.16185 64.198717,21.48602 95.599047,29.35675 26.54272,6.65313 27.29714,7.24038 35.36287,27.52705 13.63022,34.28229 43.1431,77.99482 84.00426,124.42162 27.18642,30.88946 85.95043,91.62841 91.3563,94.42661 4.60685,2.38462 11.47428,1.94663 16.56412,-1.0564 4.32755,-2.55327 54.76403,-54.28422 77.83326,-79.83088 50.7367,-56.18535 80.66208,-99.56896 97.31812,-141.0846 6.95933,-17.3463 7.32925,-17.60333 36.03479,-25.03788 37.43345,-9.69501 60.33097,-16.63135 89.96442,-27.25291 20.73131,-7.43075 23.58687,-7.70073 30.84999,-2.9167 4.36852,2.87743 8.19814,9.97991 8.18992,15.18916 -0.0123,7.79555 -4.5028,33.52275 -8.78996,50.35985 -19.09384,74.98798 -63.11056,146.38039 -146.08877,236.94698 -6.03389,6.58569 -27.6533,29.23607 -48.04316,50.3342 -20.38985,21.09811 -37.69428,39.80814 -38.4543,41.57781 -2.10885,4.91044 -0.68964,9.28668 5.72084,17.64063 70.85969,92.34214 104.82031,165.53811 114.38513,246.53642 3.03438,25.69618 1.6542,32.80996 -7.39445,38.11282 l -4.26753,2.50094 -62.90201,-0.046 c -60.17888,-0.044 -63.06741,-0.13339 -66.72275,-2.06431 z m 693.4781,-0.13609 c -2.0853,-1.20923 -4.7816,-3.96025 -5.9917,-6.11338 l -2.2002,-3.91479 0.2651,-333.03841 0.265,-333.0384 2.4248,-3.39966 c 5.2015,-7.29258 2.4912,-7.01249 67.8572,-7.01249 h 58.8287 l 3.9369,2.44766 c 2.1653,1.34622 4.8616,4.2602 5.9918,6.47553 2.0346,3.98824 2.0522,7.30184 1.7897,336.65172 l -0.2651,332.62385 -2.1781,2.93966 c -1.198,1.61681 -3.7272,3.99389 -5.6204,5.28239 l -3.4422,2.34274 -58.935,-0.024 c -58.0596,-0.0235 -58.9912,-0.0565 -62.7265,-2.2225 z M 343.18454,409.06453 c -8.40615,-4.16094 -34.63263,-35.47448 -49.78184,-59.43781 -9.63632,-15.24293 -22.3966,-41.27447 -23.04292,-47.00858 -0.6843,-6.07115 2.4537,-12.72862 7.66193,-16.25528 4.38649,-2.97022 -0.76379,-2.82518 57.66093,-1.6239 27.37711,0.56292 46.97607,0.44083 61.81595,-0.38504 21.26901,-1.18366 21.82562,-1.16258 26.2834,0.99539 6.03592,2.92194 8.99911,7.2629 9.55798,14.00207 0.37403,4.51041 -0.17636,6.83972 -3.34391,14.15181 -11.58096,26.73392 -33.19648,58.99116 -56.02197,83.60262 -13.18493,14.21656 -20.49342,17.0552 -30.78955,11.95872 z M 141.46818,179.70726 C 101.3676,170.54376 81.638234,129.53103 99.614873,92.704036 104.18735,83.336861 116.16736,71.441869 125.62309,66.880409 c 24.852,-11.98865 52.93957,-6.986316 71.36435,12.709831 6.74247,7.207716 12.51447,17.824163 14.73917,27.10977 1.69213,7.06274 1.51031,21.69954 -0.35598,28.65789 -7.0244,26.18984 -28.25436,43.67185 -54.97131,45.26663 -5.45841,0.32583 -10.97402,-0.013 -14.93114,-0.91727 z m 397.25132,-0.0873 c -9.61431,-2.1611 -22.43748,-8.83299 -28.91349,-15.04366 -11.77054,-11.2883 -17.80154,-24.429 -18.66651,-40.67174 -0.96329,-18.08906 4.8221,-33.466193 17.27706,-45.921159 23.95268,-23.952673 63.01155,-23.325674 86.09742,1.382091 11.19724,11.983891 16.34679,25.214868 16.32172,41.936038 -0.0314,20.97531 -11.6991,41.13328 -29.76264,51.42038 -12.58295,7.16592 -29.1546,9.86491 -42.35356,6.89805 z M 344.53296,125.26065 c -12.19056,-1.61686 -25.75593,-8.29363 -34.44052,-16.95137 -11.83449,-11.797903 -17.09313,-23.590296 -17.88928,-40.116334 -0.8975,-18.629408 4.3097,-32.154789 17.4417,-45.303775 11.94898,-11.964445 25.47459,-17.6831189 41.82351,-17.6831189 10.57222,0 17.4872,1.5140242 26.38346,5.7766169 21.41074,10.258834 34.11796,30.638193 34.10086,54.689647 -0.0141,19.82167 -9.67052,38.111974 -25.9986,49.244074 -12.28769,8.37747 -27.537,12.18574 -41.42113,10.34426 z"
     style="fill:#4b6888;stroke-width:1.0412147" />
  <path
     inkscape:connector-curvature="0"
     id="path128"
     d="m 811.07827,972.0674 c -8.53937,-3.20582 -8.60793,-3.35924 -24.04658,-53.81192 -13.43598,-43.90808 -14.14516,-46.66213 -13.05666,-50.70453 0.63306,-2.35103 2.56984,-5.6934 4.30395,-7.4275 3.5091,-3.50911 6.96523,-4.62012 19.18238,-6.16636 19.52178,-2.47074 36.48199,-10.87952 50.51952,-25.04728 10.0522,-10.14546 15.99391,-20.51934 20.0371,-34.9836 l 2.32841,-8.32971 0.52061,-267.59219 c 0.5161,-265.27709 0.53862,-267.62209 2.60303,-271.04805 1.14534,-1.90073 3.72235,-4.47773 5.72668,-5.72668 3.63302,-2.26382 3.82557,-2.27082 62.47289,-2.27082 57.46901,0 58.9128,0.0495 62.4693,2.13873 2.0024,1.17629 4.6965,3.70545 5.987,5.62035 l 2.3463,3.48164 v 273.11156 c 0,297.53022 0.2547,283.97437 -5.7833,307.79915 -18.43178,72.72931 -77.15972,126.77953 -151.96073,139.85703 -13.83521,2.41882 -38.48266,3.04005 -43.6499,1.10018 z M 133.1687,926.08198 c -4.8066,-2.50624 -6.89256,-4.72516 -9.11675,-9.6979 -1.7727,-3.96333 -1.95006,-5.89933 -1.33536,-14.577 4.69536,-66.28415 28.96256,-133.13992 73.09742,-201.3822 5.46043,-8.44304 7.36258,-10.55058 11.02143,-12.2114 5.85681,-2.65853 10.96882,-2.5669 16.165,0.28974 6.25185,3.437 46.22782,46.64337 70.56662,76.26898 13.19175,16.05723 16.06077,21.44156 16.07504,30.16824 0.009,5.60623 -0.76179,7.83427 -7.80949,22.56926 -13.9672,29.20188 -20.72765,49.79449 -24.44209,74.45154 -4.2538,28.23736 -4.81917,29.75482 -12.55669,33.70221 -3.88753,1.98327 -6.32124,2.05862 -66.28975,2.05244 -54.41976,-0.005 -62.64686,-0.21123 -65.37538,-1.63391 z m 305.82651,-0.56558 c -6.93096,-3.43076 -9.07749,-8.18182 -11.13119,-24.63758 C 419.9261,837.27465 385.88506,775.53332 314.35886,695.01081 297.97077,676.5615 277.91986,655.45901 226.8032,602.86331 171.81616,546.28523 152.35823,525.51532 130.16161,499.7055 53.529546,410.59916 14.712363,335.10985 4.0779452,254.50563 2.321933,241.19582 2.9731746,237.21289 7.8053203,231.70939 c 3.7383637,-4.25777 11.0886467,-7.32746 15.4545637,-6.45427 1.70729,0.34146 11.438376,3.62992 21.624633,7.30769 28.330763,10.22888 60.256403,19.87999 89.843683,27.15972 24.07929,5.92453 26.23496,7.50514 32.93917,24.15197 21.93993,54.47782 61.13885,105.66879 151.80353,198.24458 19.53767,19.9495 23.65426,23.66325 27.48363,24.79426 5.12114,1.51253 9.58344,0.86309 14.47408,-2.10656 4.08762,-2.48205 53.42088,-53.44916 77.42692,-79.99119 49.86269,-55.13018 79.46329,-97.57776 95.78866,-137.36198 2.9551,-7.20145 6.28294,-14.38024 7.39519,-15.95287 3.46667,-4.90156 10.07979,-7.70153 29.999,-12.70145 33.06342,-8.29928 60.57851,-16.7294 98.53043,-30.18794 9.87595,-3.50222 10.89153,-3.66676 15.94418,-2.58315 6.6515,1.42648 11.95589,6.32353 13.64527,12.5974 1.40674,5.22423 0.21649,17.03773 -3.78351,37.55221 -9.40768,48.24842 -30.69923,97.15045 -64.26234,147.59657 -31.20751,46.9056 -67.2015,88.9949 -141.12545,165.02399 -20.38302,20.96348 -30.73861,32.3653 -31.50526,34.68826 -1.99163,6.0347 -0.37766,9.37342 12.68058,26.23134 65.04819,83.97593 101.2582,166.02082 108.31699,245.42535 1.49685,16.83812 0.94649,20.88976 -3.53021,25.98845 -5.96665,6.79564 -3.73365,6.59062 -71.77529,6.58971 -60.76536,-8e-4 -61.79467,-0.0351 -66.17856,-2.20508 z m 693.17149,-0.13709 c -1.9522,-1.31561 -4.6149,-3.97294 -5.917,-5.90517 l -2.3676,-3.51315 V 583.86453 c 0,-306.96733 0.1305,-332.37147 1.7246,-335.7307 0.9484,-1.99882 3.6078,-4.88091 5.9096,-6.40465 l 4.185,-2.77042 55.1472,-0.30389 c 37.1992,-0.20498 56.9416,0.0687 60.6611,0.84081 4.3185,0.89653 6.3059,2.02123 9.1664,5.18754 2.0088,2.22356 3.9291,5.59357 4.2673,7.48891 0.3382,1.89533 0.4818,152.29241 0.3191,334.21573 l -0.2957,330.76966 -2.1467,2.87532 c -1.1808,1.58143 -3.4404,3.84138 -5.0214,5.02209 -2.8141,2.10155 -4.1301,2.15277 -62.4785,2.43159 l -59.6038,0.28483 z m 255.7554,-0.003 c -2.3947,-1.37557 -4.9687,-4.0555 -6.2473,-6.50434 l -2.1744,-4.16486 -0.3078,-326.94143 c -0.1693,-179.81778 -0.022,-329.37765 0.3286,-332.35526 0.7533,-6.40728 3.8118,-11.36322 8.833,-14.31295 3.6121,-2.12188 4.6615,-2.14118 133.272,-2.45067 136.7752,-0.32913 173.7474,0.38767 200.9544,3.89604 88.7426,11.44344 138.7093,50.73234 155.669,122.40289 6.0065,25.38308 6.2399,29.37453 6.2399,106.72451 0,78.39935 -0.167,81.02748 -6.7837,106.75632 -11.9057,46.29455 -38.6885,79.84583 -79.814,99.98467 -7.2598,3.55504 -9.5329,5.13543 -8.9316,6.20979 3.4846,6.22645 115.4597,166.70035 115.9639,166.19012 0.3582,-0.36264 43.2303,-135.81364 95.2711,-301.00222 52.0408,-165.1886 95.5583,-301.74461 96.7056,-303.45781 1.1473,-1.7132 3.7243,-4.07734 5.7267,-5.25364 3.5746,-2.09989 5.106,-2.14458 84.3349,-2.46109 44.3817,-0.1773 83.606,-0.0247 87.1648,0.33923 7.5932,0.77635 12.2962,3.54854 14.986,8.83346 1.0201,2.00434 19.6471,60.10412 41.3933,129.11063 21.7462,69.0065 68.2241,216.36442 103.2842,327.46203 44.8562,142.13898 63.7617,203.43352 63.7999,206.84794 0.04,3.54714 -0.6748,5.95389 -2.6562,8.9479 -5.1731,7.81717 -2.624,7.54472 -70.5907,7.54472 -59.3584,0 -60.6902,-0.0446 -64.3979,-2.1529 -2.0823,-1.1841 -4.5938,-3.24734 -5.581,-4.585 -0.9872,-1.33764 -8.6358,-24.38185 -16.9968,-51.20934 -8.361,-26.8275 -17.5301,-56.15688 -20.3756,-65.1764 l -5.1737,-16.39913 h -78.0799 c -85.3846,0 -82.3061,0.21607 -87.6654,-6.15305 -4.2735,-5.0789 -5.2113,-10.00671 -3.3019,-17.35127 7.3862,-28.41033 26.1002,-92.12944 27.7333,-94.42896 4.6314,-6.52114 3.9867,-6.44126 56.5922,-7.01249 l 47.9438,-0.52061 -33.524,-116.05652 -33.524,-116.05651 -4.1541,-3.87495 c -4.8472,-4.52142 -10.0466,-5.86931 -15.8886,-4.119 -5.5806,1.67198 -9.9144,5.6247 -11.8512,10.80905 -0.9031,2.41755 -33.5021,112.39555 -72.442,244.39555 -38.9401,131.99999 -71.6619,241.17136 -72.7152,242.60303 -1.0531,1.43167 -3.4726,3.66322 -5.3767,4.95899 l -3.4618,2.35597 -116.3663,-0.27354 c -116.3381,-0.27346 -116.3671,-0.27406 -119.3058,-2.45787 -1.6167,-1.20139 -36.9635,-51.10161 -78.5485,-110.88937 l -75.6092,-108.70489 -55.3235,-0.26942 -55.3237,-0.26944 -0.023,104.39091 c -0.022,99.55222 -0.1127,104.58872 -1.9611,108.65876 -1.0661,2.34733 -3.5156,5.39288 -5.4435,6.7679 l -3.5053,2.50003 -59.3492,0.25706 -59.3493,0.25704 -4.0728,-2.33947 z m 296.1608,-346.4983 c 38.1102,-4.65935 54.3359,-20.89077 58.2502,-58.27054 1.3826,-13.20389 1.3588,-83.39946 -0.033,-96.98296 -3.3093,-32.30045 -17.438,-47.7414 -50.4526,-55.13912 -10.1673,-2.27821 -12.1445,-2.33827 -90.3081,-2.74328 l -79.9133,-0.41408 v 107.31434 107.31434 h 76.8169 c 46.6193,0 80.2854,-0.42406 85.6399,-1.0787 z M 344.53296,409.83447 c -4.61505,-2.015 -24.15304,-22.9118 -35.16061,-37.60592 -15.86395,-21.17697 -30.64807,-46.33313 -36.73754,-62.51138 -4.41983,-11.74236 -1.56107,-20.13551 8.34966,-24.51415 3.84127,-1.6971 5.79698,-1.76286 22.94112,-0.77133 11.75302,0.67974 35.43744,0.80108 63.5141,0.32539 24.62472,-0.41719 46.98323,-0.772 49.68555,-0.78846 9.43158,-0.0575 17.12743,8.40973 16.19978,17.82339 -1.19363,12.11298 -21.27609,48.06778 -41.09001,73.56588 -12.54513,16.14405 -26.86699,31.31406 -31.83283,33.71798 -5.13781,2.48716 -11.24187,2.77896 -15.86922,0.7586 z M 144.51781,180.17245 C 122.40567,176.76689 103.39873,161.0657 96.220707,140.27532 93.09261,131.21513 92.34183,116.20272 94.548706,106.84244 100.90675,79.875349 125.68939,60.322068 153.40099,60.408512 c 26.7997,0.0836 51.19895,19.165511 57.83784,45.233218 2.05014,8.04992 2.01768,21.99424 -0.0701,30.08648 -3.64118,14.11361 -13.38743,27.56566 -25.6595,35.41602 -11.28853,7.22118 -28.34004,10.97671 -40.99148,9.02822 z m 397.7285,0.0128 c -23.63082,-3.70268 -43.51832,-21.54327 -49.32535,-44.24853 -5.42451,-21.20963 0.34419,-42.658365 15.56742,-57.881593 23.66347,-23.663476 61.40166,-23.472481 84.8949,0.429657 11.72855,11.932692 17.18004,25.292986 17.18004,42.104206 0,26.31795 -15.95425,48.55262 -40.78664,56.84238 -8.63676,2.88321 -19.66475,3.98635 -27.53037,2.75388 z M 345.05357,124.96618 c -19.25269,-2.51026 -36.10409,-13.76607 -45.68808,-30.517135 -6.7366,-11.774373 -9.09917,-29.381498 -5.81307,-43.322182 5.03496,-21.359882 23.17865,-39.341966 44.8512,-44.4517111 9.8275,-2.3170322 24.53122,-1.5059014 33.73723,1.8611141 18.8734,6.902777 34.52441,24.553395 38.40828,43.315395 1.64242,7.934164 1.40613,21.271501 -0.50833,28.692165 -7.32383,28.387924 -36.26068,48.167864 -64.98723,44.422354 z"
     style="fill:#405e80;stroke-width:1.0412147" />
  <path
     inkscape:connector-curvature="0"
     id="path126"
     d="m 811.66684,971.98128 c -5.73065,-1.78771 -9.04345,-4.8869 -11.02712,-10.31607 -3.23973,-8.8669 -26.43968,-85.59707 -26.6335,-88.08607 -0.53422,-6.86038 0.0825,-8.6584 4.47705,-13.05296 3.66063,-3.66064 5.36773,-4.56865 9.63124,-5.12292 14.3412,-1.8644 20.45492,-3.14644 27.9153,-5.85377 21.88209,-7.94091 36.69068,-20.83293 45.9524,-40.00505 9.20589,-19.05659 8.27645,11.44009 8.87488,-291.20362 l 0.53051,-268.29688 2.17817,-2.93956 c 1.19799,-1.61674 3.72716,-3.99377 5.62036,-5.28228 l 3.44219,-2.34273 h 59.56188 59.5619 l 3.5379,2.36348 c 1.9458,1.29993 4.3618,3.99407 5.3688,5.98699 1.7358,3.4354 1.8139,18.05433 1.5053,281.62783 -0.3254,277.9683 -0.3257,278.00571 -2.5177,288.60756 -8.63,41.73991 -26.05236,74.25781 -54.61114,101.92854 -10.96401,10.62308 -16.84457,15.37256 -27.94267,22.56812 -25.08303,16.26281 -54.24313,26.56394 -84.55766,29.8709 -13.40014,1.46179 -25.2925,1.28785 -30.86809,-0.45151 z M 133.16638,925.99219 c -4.9521,-2.61068 -7.62731,-5.53332 -9.46186,-10.33702 -1.5123,-3.95991 -1.5655,-6.09122 -0.47043,-18.84528 3.24034,-37.73909 13.07644,-76.75311 28.69509,-113.81643 11.20846,-26.59787 29.92259,-61.46806 45.91837,-85.56003 6.70925,-10.10511 14.87721,-13.51562 23.62022,-9.86256 5.58408,2.33318 46.5034,46.27503 71.78876,77.09147 13.70842,16.7071 16.39461,21.66203 16.39885,30.24922 0.003,5.73683 -0.73798,7.84676 -8.2452,23.4832 -15.31918,31.9076 -22.94045,56.99109 -26.08675,85.85805 -1.39246,12.7756 -4.05377,18.04188 -10.75741,21.28706 -4.42532,2.14226 -5.64757,2.18167 -66.39215,2.14075 -54.36181,-0.0367 -62.26353,-0.24186 -65.00749,-1.68843 z m 307.67894,0.5632 c -3.26475,-1.298 -8.09574,-5.8284 -9.85868,-9.24523 -0.73869,-1.43167 -1.90578,-7.52278 -2.59356,-13.53579 C 421.48065,843.34093 390.74836,783.95011 328.98716,711.67025 309.82982,689.25019 288.21237,665.94179 252.90607,629.63799 162.11216,536.2789 140.93616,513.48019 112.95156,478.95876 50.023902,401.33205 15.757933,332.20605 5.0797104,261.34488 2.0374758,241.15647 2.8715497,235.56272 9.7923756,229.73924 c 1.7646114,-1.48482 5.1534824,-3.22344 7.5308264,-3.86359 3.752099,-1.01033 5.291459,-0.83198 11.666322,1.35171 55.637388,19.05843 71.046006,23.8162 105.218066,32.48852 26.3834,6.69568 25.82971,6.2204 36.45663,31.29279 18.98057,44.78129 54.79231,93.05856 119.1717,160.65354 43.13562,45.29014 52.28164,54.16172 57.1269,55.41272 4.74044,1.22393 9.26939,0.68376 13.84052,-1.65075 2.52119,-1.2876 43.95572,-43.40073 66.38347,-67.47068 55.95701,-60.05428 90.26878,-108.13632 107.95842,-151.28517 5.20924,-12.70643 8.15708,-17.4799 12.42267,-20.11619 2.01341,-1.24436 13.38763,-4.75363 25.27603,-7.79839 34.38476,-8.80632 71.25102,-20.13971 95.33582,-29.30805 16.82169,-6.40348 26.31819,-3.86901 31.44078,8.39107 1.90619,4.56216 1.67754,8.50852 -1.69386,29.23479 -7.00035,43.03578 -24.43761,88.44735 -51.17552,133.27549 -32.71279,54.84548 -74.86142,105.617 -158.63282,191.08633 -14.44638,14.73919 -27.01005,28.23706 -27.91925,29.99528 -2.14812,4.15401 -2.09181,8.22421 0.17063,12.33318 1.00129,1.81849 8.35022,11.89224 16.33099,22.38611 15.28055,20.09237 35.45961,50.08698 46.20035,68.67325 33.21266,57.47273 52.65963,115.13618 57.58255,170.7417 1.44624,16.33573 0.90139,20.51662 -3.29684,25.29815 -6.26415,7.13446 -3.44738,6.86841 -71.94348,6.79525 -38.34343,-0.041 -62.78278,-0.45874 -64.39796,-1.10091 z m 692.92838,-0.2896 c -3.8355,-1.72106 -7.3056,-5.3898 -8.781,-9.28372 -0.7781,-2.05375 -1.1106,-102.0358 -1.1106,-334.02133 0,-282.96723 0.2135,-331.49887 1.4689,-333.90184 0.8079,-1.5464 2.9468,-4.21728 4.7533,-5.93528 l 3.2844,-3.12364 60.1326,-0.28464 60.1325,-0.28463 3.4783,2.36706 c 1.913,1.30189 4.4585,3.68992 5.6565,5.30673 l 2.1781,2.93966 0.2651,332.10323 c 0.2629,329.30897 0.2478,332.13725 -1.7985,336.14834 -1.135,2.22483 -3.597,5.13882 -5.4712,6.47556 l -3.4075,2.43041 -58.8286,0.23286 c -47.4514,0.18782 -59.4328,-0.0382 -61.9523,-1.16877 z m 254.4954,-0.911 c -1.9322,-1.30212 -4.5785,-3.94842 -5.8806,-5.88065 l -2.3675,-3.51315 V 583.86453 c 0,-304.24985 0.1417,-332.39514 1.6902,-335.65828 0.9296,-1.95901 3.1552,-4.60683 4.9457,-5.88404 l 3.2556,-2.32223 148.3731,-0.31682 c 100.9602,-0.21559 153.1976,0.049 163.4707,0.82824 60.9191,4.6204 104.7472,20.51223 134.5439,48.78484 25.3498,24.05324 38.8897,52.50618 45.8102,96.26644 2.2524,14.24248 2.3388,17.36038 2.3586,85.06636 0.022,73.36466 -0.1316,76.54339 -4.7713,99.10759 -10.1875,49.54627 -37.8032,86.40646 -80.9198,108.00821 -5.9092,2.96058 -10.5946,5.7699 -10.4121,6.24293 1.1719,3.03653 116.0416,167.44178 116.5935,166.87244 0.3777,-0.38962 42.9013,-134.71274 94.4969,-298.49581 51.5958,-163.78308 94.5621,-299.81349 95.481,-302.2898 1.1031,-2.9727 3.0995,-5.53738 5.8762,-7.5488 l 4.2055,-3.04643 h 86.8881 c 95.3004,0 91.4284,-0.24765 95.9758,6.13857 1.0802,1.517 48.6798,150.80847 105.7769,331.75883 75.9601,240.73028 103.8147,330.31183 103.82,333.8877 0.01,6.16879 -2.9087,11.07121 -8.4383,14.17905 l -4.141,2.32734 -61.4313,-0.28459 c -60.1947,-0.27884 -61.4893,-0.32779 -64.3061,-2.43134 -1.581,-1.18071 -3.7629,-3.33663 -4.8487,-4.79093 -1.0858,-1.45429 -11.0032,-31.6466 -22.0387,-67.09401 l -20.0645,-64.44985 -79.7287,-0.52061 c -78.8584,-0.51492 -79.7609,-0.54439 -82.6678,-2.69877 -4.9453,-3.66507 -7.6245,-8.53548 -7.6245,-13.86034 0,-5.61396 24.8234,-95.0831 27.7696,-100.08823 1.0478,-1.7799 3.545,-4.25805 5.5493,-5.507 3.5733,-2.22661 4.5788,-2.28096 51.6463,-2.79142 l 48.0021,-0.52061 -33.0776,-114.53362 c -18.1927,-62.99349 -33.935,-116.13337 -34.9827,-118.0886 -6.1084,-11.39906 -23.9352,-10.82686 -30.0325,0.96397 -0.8212,1.58818 -33.6186,111.75797 -72.8828,244.82173 -39.2643,133.06378 -72.2227,243.07655 -73.2409,244.47283 -1.0182,1.39629 -3.1451,3.50475 -4.7264,4.68546 -2.8582,2.13418 -3.5537,2.14836 -118.6341,2.41834 -110.6881,0.25968 -115.9186,0.18764 -119.4033,-1.64452 -2.9464,-1.54917 -18.2053,-22.83552 -79.6844,-111.16093 l -76.0404,-109.24486 -55.3937,-0.26941 -55.3938,-0.26943 -0.2796,105.43212 -0.2796,105.4321 -2.4477,3.93692 c -1.3462,2.1653 -4.256,4.85945 -6.4661,5.98699 -3.8554,1.96689 -6.3795,2.05006 -62.214,2.05006 h -58.1955 z m 298.9102,-346.92264 c 32.4684,-4.96355 47.8858,-18.24385 53.8335,-46.37144 1.6538,-7.82079 1.8715,-14.72469 1.8715,-59.34924 0,-44.95994 -0.2085,-51.46966 -1.9004,-59.34924 -6.2101,-28.92025 -24.6769,-42.78501 -62.3536,-46.81454 -6.0017,-0.64187 -39.9603,-1.08134 -83.5575,-1.08134 h -73.4466 v 107.24512 107.24512 l 77.8308,-0.006 c 62.7879,-0.005 79.7425,-0.29839 87.7223,-1.51829 z M 344.53296,409.32312 c -8.14345,-3.73644 -31.6492,-30.66816 -46.71492,-53.52365 -12.86031,-19.50978 -25.63623,-44.1496 -27.3595,-52.76596 -0.86382,-4.31912 2.11004,-11.81 5.982,-15.06803 4.667,-3.92702 8.44092,-4.47467 24.3614,-3.53518 18.95262,1.11841 84.51963,1.11963 102.55965,0.002 8.01707,-0.49672 15.52255,-0.47454 17.46881,0.0516 4.71144,1.27375 10.27418,6.42506 11.74245,10.87394 1.89793,5.75077 0.65667,10.75171 -6.17772,24.88972 -14.38697,29.76163 -33.8155,57.37525 -57.22352,81.3313 -9.59348,9.81808 -15.83986,11.78142 -24.63865,7.74429 z M 146.18156,180.09931 c -14.64922,-1.77894 -26.80509,-7.99598 -36.8786,-18.86132 -21.84173,-23.55866 -21.503516,-59.79308 0.76911,-82.397069 23.92957,-24.285603 61.8046,-24.422757 85.56719,-0.309856 10.94345,11.104778 17.18004,26.194525 17.18004,41.567955 0,10.38192 -1.53395,17.33694 -5.77662,26.19163 -11.17732,23.32769 -35.57288,36.87954 -60.86112,33.80866 z m 397.18609,-0.0655 c -13.64339,-1.67136 -24.54488,-7.15613 -35.07534,-17.64713 -31.4242,-31.30644 -17.87844,-85.785959 24.65727,-99.16889 10.31844,-3.246469 26.42376,-3.215982 35.96515,0.06808 24.34393,8.378963 40.11192,28.573418 41.41726,53.04412 0.63607,11.9241 -0.93328,20.43492 -5.52456,29.96064 -11.36861,23.58692 -35.62033,36.90614 -61.43978,33.74318 z M 333.0796,122.05857 c -36.67445,-12.51649 -51.9967,-54.447371 -32.28224,-88.343611 9.8394,-16.917457 31.05701,-28.5445367 51.99625,-28.4935166 31.93447,0.077811 58.8977,27.3173976 58.8977,59.5013576 0,17.47725 -5.32266,30.369113 -17.59315,42.61193 -12.51323,12.48498 -24.95373,17.59419 -42.7973,17.57648 -8.02802,-0.008 -11.46083,-0.54539 -18.22126,-2.85264 z"
     style="fill:#25486f;stroke-width:1.0412147" />
</svg>
